<svg width="16" height="22" viewBox="0 0 16 22" fill="none" xmlns="http://www.w3.org/2000/svg">
<path d="M1.27891 4L2.56953 19.8977C2.56953 20.7836 3.28594 21.5 4.17188 21.5H11.8828C12.7688 21.5 13.4852 20.7836 13.4852 19.8977L14.7594 4H1.27891ZM4.64766 18.4922L4.28125 5.75H5.29297L5.67031 18.4922H4.64766ZM8.49219 18.4922H7.50781V5.75H8.49219V18.4922ZM11.3523 18.4922H10.3352L10.707 5.75H11.7188L11.3523 18.4922ZM13.9062 2.03125H11.9375L10.4992 0.773438C10.2969 0.598437 10.0398 0.5 9.77734 0.5H6.23359C5.96562 0.5 5.70312 0.598437 5.50078 0.773438L4.0625 2.03125H2.09375C1.13125 2.03125 0.453125 2.49063 0.453125 3.45312H15.5469C15.5469 2.49063 14.8687 2.03125 13.9062 2.03125Z" fill="#FF0000"/>
</svg>
